<svg width="200" height="200" viewBox="0 0 200 200" fill="none" xmlns="http://www.w3.org/2000/svg">
<g clip-path="url(#clip0_33_1304)">
<rect width="200" height="200" fill="#171515"/>
<path d="M163.432 50.6584L87.2155 60.065L76.6031 123.016H87.2155L81.4269 148.341L116.882 105.65H104.581L116.882 83.7018L138.107 81.2899L163.432 50.6584Z" fill="#FED000"/>
<path d="M78.0502 61.0297L40.6654 66.0948L35.8416 93.5907L72.744 89.2492L78.0502 61.0297Z" fill="#FED000"/>
<g opacity="0.5">
<g style="mix-blend-mode:plus-lighter" opacity="0.15" filter="url(#filter0_f_33_1304)">
<circle cx="163.155" cy="88.6427" r="75.7317" transform="rotate(21.9096 163.155 88.6427)" fill="#FED000"/>
</g>
<g style="mix-blend-mode:plus-lighter" opacity="0.6" filter="url(#filter1_gf_33_1304)">
<path d="M234.482 23.4995L159.997 98.8601L199.366 130.031L201.367 171.736L139.455 193.871L72.838 282.62" stroke="url(#paint0_linear_33_1304)" stroke-width="10.2461"/>
</g>
<g filter="url(#filter2_g_33_1304)">
<path d="M234.482 23.4995L159.997 98.8601L199.366 130.031L201.367 171.736L139.455 193.871L72.838 282.62" stroke="white" stroke-width="0.512303"/>
</g>
<g style="mix-blend-mode:plus-lighter" filter="url(#filter3_g_33_1304)">
<path d="M234.482 23.4995L159.997 98.8601L199.366 130.031L201.367 171.736L139.455 193.871L72.838 282.62" stroke="url(#paint1_linear_33_1304)" stroke-width="1.02461"/>
</g>
<g style="mix-blend-mode:plus-lighter" filter="url(#filter4_gf_33_1304)">
<path d="M234.482 23.4995L159.997 98.8601L199.366 130.031L201.367 171.736L139.455 193.871L72.838 282.62" stroke="url(#paint2_linear_33_1304)" stroke-width="2.04921"/>
</g>
<g style="mix-blend-mode:plus-lighter" filter="url(#filter5_gf_33_1304)">
<path d="M234.482 23.4995L159.997 98.8601L199.366 130.031L201.367 171.736L139.455 193.871L72.838 282.62" stroke="url(#paint3_linear_33_1304)" stroke-width="4.09842"/>
</g>
<g style="mix-blend-mode:plus-lighter" filter="url(#filter6_g_33_1304)">
<path d="M263.47 37.9192L187.389 74.6869L199.366 130.031L164.17 179.098L120.189 195.093L72.8378 282.62" stroke="white" stroke-width="0.256151"/>
</g>
<g style="mix-blend-mode:plus-lighter" filter="url(#filter7_f_33_1304)">
<path d="M194.973 62.2523C195.269 62.0634 195.663 62.2219 195.746 62.5633L195.82 62.8697C195.872 63.0825 195.783 63.3047 195.598 63.4225L195.332 63.592C195.036 63.781 194.642 63.6224 194.559 63.281L194.484 62.9747C194.433 62.7618 194.522 62.5396 194.707 62.4218L194.973 62.2523Z" fill="#FED000"/>
</g>
<g style="mix-blend-mode:plus-lighter" filter="url(#filter8_f_33_1304)">
<path d="M166.933 100.009C167.229 99.8202 167.623 99.9787 167.706 100.32L167.781 100.626C167.832 100.839 167.743 101.062 167.558 101.179L167.292 101.349C166.996 101.538 166.602 101.379 166.519 101.038L166.445 100.732C166.393 100.519 166.482 100.296 166.667 100.179L166.933 100.009Z" fill="#FED000" fill-opacity="0.25"/>
</g>
<g style="mix-blend-mode:plus-lighter" filter="url(#filter9_f_33_1304)">
<path d="M200.364 77.9046C200.66 77.7157 201.054 77.8742 201.137 78.2156L201.321 78.9748C201.373 79.1877 201.284 79.4099 201.099 79.5277L200.44 79.9478C200.144 80.1367 199.75 79.9782 199.667 79.6368L199.483 78.8775C199.431 78.6647 199.52 78.4425 199.705 78.3247L200.364 77.9046Z" fill="#FED000" fill-opacity="0.25"/>
</g>
<g style="mix-blend-mode:plus-lighter" filter="url(#filter10_f_33_1304)">
<path d="M194.36 61.597C194.656 61.408 195.05 61.5666 195.133 61.908L195.317 62.6672C195.369 62.8801 195.28 63.1023 195.095 63.2201L194.436 63.6402C194.14 63.8291 193.746 63.6705 193.663 63.3291L193.479 62.5699C193.427 62.3571 193.516 62.1349 193.701 62.0171L194.36 61.597Z" fill="#FED000" fill-opacity="0.25"/>
</g>
<g style="mix-blend-mode:plus-lighter" filter="url(#filter11_f_33_1304)">
<path d="M193.467 164.939C193.722 164.777 194.061 164.913 194.132 165.207C194.177 165.39 194.1 165.581 193.941 165.683C193.686 165.845 193.347 165.709 193.275 165.415C193.231 165.232 193.308 165.041 193.467 164.939Z" fill="#F5FF62" fill-opacity="0.5"/>
</g>
<g style="mix-blend-mode:plus-lighter" filter="url(#filter12_f_33_1304)">
<path d="M180.142 61.5117C180.397 61.3491 180.736 61.4855 180.807 61.7794C180.852 61.9626 180.775 62.1539 180.616 62.2553C180.361 62.4179 180.022 62.2815 179.95 61.9876C179.906 61.8044 179.983 61.6131 180.142 61.5117Z" fill="#FED000"/>
</g>
<g style="mix-blend-mode:plus-lighter" filter="url(#filter13_f_33_1304)">
<path d="M189.391 79.6716C189.519 79.5903 189.688 79.6585 189.724 79.8055C189.746 79.8971 189.708 79.9927 189.628 80.0434C189.501 80.1247 189.331 80.0565 189.296 79.9096C189.273 79.8179 189.312 79.7223 189.391 79.6716Z" fill="#FED000"/>
</g>
<g style="mix-blend-mode:plus-lighter" filter="url(#filter14_f_33_1304)">
<path d="M176.629 72.9048C176.757 72.8235 176.926 72.8917 176.962 73.0386C176.984 73.1302 176.946 73.2259 176.866 73.2766C176.739 73.3579 176.569 73.2897 176.533 73.1427C176.511 73.0511 176.55 72.9555 176.629 72.9048Z" fill="#FED000"/>
</g>
<g style="mix-blend-mode:plus-lighter" filter="url(#filter15_f_33_1304)">
<path d="M170.17 64.9946C170.298 64.9133 170.467 64.9815 170.503 65.1285C170.525 65.2201 170.487 65.3157 170.407 65.3664C170.28 65.4477 170.11 65.3795 170.074 65.2326C170.052 65.1409 170.091 65.0453 170.17 64.9946Z" fill="#FED000" fill-opacity="0.25"/>
</g>
<g style="mix-blend-mode:plus-lighter" filter="url(#filter16_f_33_1304)">
<path d="M180.967 92.6284C181.095 92.5471 181.264 92.6153 181.3 92.7623C181.322 92.8539 181.284 92.9495 181.204 93.0002C181.077 93.0815 180.907 93.0133 180.871 92.8664C180.849 92.7747 180.888 92.6791 180.967 92.6284Z" fill="#F5FF62" fill-opacity="0.5"/>
</g>
</g>
<g opacity="0.5">
<g style="mix-blend-mode:plus-lighter" opacity="0.15" filter="url(#filter17_f_33_1304)">
<circle cx="25.4111" cy="-13.9793" r="75.7317" transform="rotate(21.9096 25.4111 -13.9793)" fill="#FED000"/>
</g>
<g style="mix-blend-mode:plus-lighter" opacity="0.6" filter="url(#filter18_gf_33_1304)">
<path d="M96.7379 -79.1225L22.2537 -3.76199L61.6223 27.4092L63.6232 69.114L1.71118 91.2485L-64.9056 179.998" stroke="url(#paint4_linear_33_1304)" stroke-width="10.2461"/>
</g>
<g filter="url(#filter19_g_33_1304)">
<path d="M96.7379 -79.1225L22.2537 -3.76199L61.6223 27.4092L63.6232 69.114L1.71118 91.2485L-64.9056 179.998" stroke="white" stroke-width="0.512303"/>
</g>
<g style="mix-blend-mode:plus-lighter" filter="url(#filter20_g_33_1304)">
<path d="M96.7379 -79.1225L22.2537 -3.76199L61.6223 27.4092L63.6232 69.114L1.71118 91.2485L-64.9056 179.998" stroke="url(#paint5_linear_33_1304)" stroke-width="1.02461"/>
</g>
<g style="mix-blend-mode:plus-lighter" filter="url(#filter21_gf_33_1304)">
<path d="M96.7379 -79.1225L22.2537 -3.76199L61.6223 27.4092L63.6232 69.114L1.71118 91.2485L-64.9056 179.998" stroke="url(#paint6_linear_33_1304)" stroke-width="2.04921"/>
</g>
<g style="mix-blend-mode:plus-lighter" filter="url(#filter22_gf_33_1304)">
<path d="M96.7379 -79.1225L22.2537 -3.76199L61.6223 27.4092L63.6232 69.114L1.71118 91.2485L-64.9056 179.998" stroke="url(#paint7_linear_33_1304)" stroke-width="4.09842"/>
</g>
<g style="mix-blend-mode:plus-lighter" filter="url(#filter23_g_33_1304)">
<path d="M125.726 -64.7028L49.6459 -27.9351L61.6223 27.4092L26.4267 76.4764L-17.5547 92.4707L-64.9056 179.998" stroke="white" stroke-width="0.256151"/>
</g>
<g style="mix-blend-mode:plus-lighter" filter="url(#filter24_f_33_1304)">
<path d="M55.7226 62.3171C55.9776 62.1545 56.3169 62.291 56.3883 62.5848C56.4328 62.7681 56.3559 62.9593 56.1969 63.0607C55.9419 63.2233 55.6026 63.0869 55.5312 62.793C55.4867 62.6098 55.5637 62.4185 55.7226 62.3171Z" fill="#F5FF62" fill-opacity="0.5"/>
</g>
</g>
</g>
<defs>
<filter id="filter0_f_33_1304" x="-13.5728" y="-88.0847" width="353.455" height="353.455" filterUnits="userSpaceOnUse" color-interpolation-filters="sRGB">
<feFlood flood-opacity="0" result="BackgroundImageFix"/>
<feBlend mode="normal" in="SourceGraphic" in2="BackgroundImageFix" result="shape"/>
<feGaussianBlur stdDeviation="50.4878" result="effect1_foregroundBlur_33_1304"/>
</filter>
<filter id="filter1_gf_33_1304" x="-31.2593" y="-80.1018" width="369.385" height="465.798" filterUnits="userSpaceOnUse" color-interpolation-filters="sRGB">
<feFlood flood-opacity="0" result="BackgroundImageFix"/>
<feBlend mode="normal" in="SourceGraphic" in2="BackgroundImageFix" result="shape"/>
<feTurbulence type="fractalNoise" baseFrequency="0.079227052628993988 0.079227052628993988" numOctaves="3" seed="9771" />
<feDisplacementMap in="shape" scale="25.243902206420898" xChannelSelector="R" yChannelSelector="G" result="displacedImage" width="100%" height="100%" />
<feMerge result="effect1_texture_33_1304">
<feMergeNode in="displacedImage"/>
</feMerge>
<feGaussianBlur stdDeviation="2.5" result="effect2_foregroundBlur_33_1304"/>
</filter>
<filter id="filter2_g_33_1304" x="60.0111" y="10.6976" width="187.274" height="284.698" filterUnits="userSpaceOnUse" color-interpolation-filters="sRGB">
<feFlood flood-opacity="0" result="BackgroundImageFix"/>
<feBlend mode="normal" in="SourceGraphic" in2="BackgroundImageFix" result="shape"/>
<feTurbulence type="fractalNoise" baseFrequency="0.079227052628993988 0.079227052628993988" numOctaves="3" seed="9771" />
<feDisplacementMap in="shape" scale="25.243902206420898" xChannelSelector="R" yChannelSelector="G" result="displacedImage" width="100%" height="100%" />
<feMerge result="effect1_texture_33_1304">
<feMergeNode in="displacedImage"/>
</feMerge>
</filter>
<filter id="filter3_g_33_1304" x="59.8063" y="10.5175" width="187.662" height="285.032" filterUnits="userSpaceOnUse" color-interpolation-filters="sRGB">
<feFlood flood-opacity="0" result="BackgroundImageFix"/>
<feBlend mode="normal" in="SourceGraphic" in2="BackgroundImageFix" result="shape"/>
<feTurbulence type="fractalNoise" baseFrequency="0.079227052628993988 0.079227052628993988" numOctaves="3" seed="9771" />
<feDisplacementMap in="shape" scale="25.243902206420898" xChannelSelector="R" yChannelSelector="G" result="displacedImage" width="100%" height="100%" />
<feMerge result="effect1_texture_33_1304">
<feMergeNode in="displacedImage"/>
</feMerge>
</filter>
<filter id="filter4_gf_33_1304" x="59.3966" y="10.1573" width="188.436" height="285.7" filterUnits="userSpaceOnUse" color-interpolation-filters="sRGB">
<feFlood flood-opacity="0" result="BackgroundImageFix"/>
<feBlend mode="normal" in="SourceGraphic" in2="BackgroundImageFix" result="shape"/>
<feTurbulence type="fractalNoise" baseFrequency="0.079227052628993988 0.079227052628993988" numOctaves="3" seed="9771" />
<feDisplacementMap in="shape" scale="25.243902206420898" xChannelSelector="R" yChannelSelector="G" result="displacedImage" width="100%" height="100%" />
<feMerge result="effect1_texture_33_1304">
<feMergeNode in="displacedImage"/>
</feMerge>
<feGaussianBlur stdDeviation="2.56151" result="effect2_foregroundBlur_33_1304"/>
</filter>
<filter id="filter5_gf_33_1304" x="-28.8008" y="-77.9409" width="364.74" height="461.792" filterUnits="userSpaceOnUse" color-interpolation-filters="sRGB">
<feFlood flood-opacity="0" result="BackgroundImageFix"/>
<feBlend mode="normal" in="SourceGraphic" in2="BackgroundImageFix" result="shape"/>
<feTurbulence type="fractalNoise" baseFrequency="0.079227052628993988 0.079227052628993988" numOctaves="3" seed="9771" />
<feDisplacementMap in="shape" scale="25.243902206420898" xChannelSelector="R" yChannelSelector="G" result="displacedImage" width="100%" height="100%" />
<feMerge result="effect1_texture_33_1304">
<feMergeNode in="displacedImage"/>
</feMerge>
<feGaussianBlur stdDeviation="50" result="effect2_foregroundBlur_33_1304"/>
</filter>
<filter id="filter6_g_33_1304" x="60.1031" y="25.182" width="216.044" height="270.121" filterUnits="userSpaceOnUse" color-interpolation-filters="sRGB">
<feFlood flood-opacity="0" result="BackgroundImageFix"/>
<feBlend mode="normal" in="SourceGraphic" in2="BackgroundImageFix" result="shape"/>
<feTurbulence type="fractalNoise" baseFrequency="0.079227052628993988 0.079227052628993988" numOctaves="3" seed="9771" />
<feDisplacementMap in="shape" scale="25.243902206420898" xChannelSelector="R" yChannelSelector="G" result="displacedImage" width="100%" height="100%" />
<feMerge result="effect1_texture_33_1304">
<feMergeNode in="displacedImage"/>
</feMerge>
</filter>
<filter id="filter7_f_33_1304" x="193.957" y="61.6593" width="2.38984" height="2.52583" filterUnits="userSpaceOnUse" color-interpolation-filters="sRGB">
<feFlood flood-opacity="0" result="BackgroundImageFix"/>
<feBlend mode="normal" in="SourceGraphic" in2="BackgroundImageFix" result="shape"/>
<feGaussianBlur stdDeviation="0.256151" result="effect1_foregroundBlur_33_1304"/>
</filter>
<filter id="filter8_f_33_1304" x="165.918" y="99.4162" width="2.38984" height="2.52583" filterUnits="userSpaceOnUse" color-interpolation-filters="sRGB">
<feFlood flood-opacity="0" result="BackgroundImageFix"/>
<feBlend mode="normal" in="SourceGraphic" in2="BackgroundImageFix" result="shape"/>
<feGaussianBlur stdDeviation="0.256151" result="effect1_foregroundBlur_33_1304"/>
</filter>
<filter id="filter9_f_33_1304" x="197.931" y="76.2871" width="4.94198" height="5.27841" filterUnits="userSpaceOnUse" color-interpolation-filters="sRGB">
<feFlood flood-opacity="0" result="BackgroundImageFix"/>
<feBlend mode="normal" in="SourceGraphic" in2="BackgroundImageFix" result="shape"/>
<feGaussianBlur stdDeviation="0.768454" result="effect1_foregroundBlur_33_1304"/>
</filter>
<filter id="filter10_f_33_1304" x="192.952" y="61.0041" width="2.89277" height="3.2292" filterUnits="userSpaceOnUse" color-interpolation-filters="sRGB">
<feFlood flood-opacity="0" result="BackgroundImageFix"/>
<feBlend mode="normal" in="SourceGraphic" in2="BackgroundImageFix" result="shape"/>
<feGaussianBlur stdDeviation="0.256151" result="effect1_foregroundBlur_33_1304"/>
</filter>
<filter id="filter11_f_33_1304" x="192.75" y="164.357" width="1.90693" height="1.90717" filterUnits="userSpaceOnUse" color-interpolation-filters="sRGB">
<feFlood flood-opacity="0" result="BackgroundImageFix"/>
<feBlend mode="normal" in="SourceGraphic" in2="BackgroundImageFix" result="shape"/>
<feGaussianBlur stdDeviation="0.256151" result="effect1_foregroundBlur_33_1304"/>
</filter>
<filter id="filter12_f_33_1304" x="179.681" y="61.186" width="1.39463" height="1.39487" filterUnits="userSpaceOnUse" color-interpolation-filters="sRGB">
<feFlood flood-opacity="0" result="BackgroundImageFix"/>
<feBlend mode="normal" in="SourceGraphic" in2="BackgroundImageFix" result="shape"/>
<feGaussianBlur stdDeviation="0.128076" result="effect1_foregroundBlur_33_1304"/>
</filter>
<filter id="filter13_f_33_1304" x="189.033" y="79.3808" width="0.953221" height="0.953465" filterUnits="userSpaceOnUse" color-interpolation-filters="sRGB">
<feFlood flood-opacity="0" result="BackgroundImageFix"/>
<feBlend mode="normal" in="SourceGraphic" in2="BackgroundImageFix" result="shape"/>
<feGaussianBlur stdDeviation="0.128076" result="effect1_foregroundBlur_33_1304"/>
</filter>
<filter id="filter14_f_33_1304" x="176.271" y="72.614" width="0.953221" height="0.953465" filterUnits="userSpaceOnUse" color-interpolation-filters="sRGB">
<feFlood flood-opacity="0" result="BackgroundImageFix"/>
<feBlend mode="normal" in="SourceGraphic" in2="BackgroundImageFix" result="shape"/>
<feGaussianBlur stdDeviation="0.128076" result="effect1_foregroundBlur_33_1304"/>
</filter>
<filter id="filter15_f_33_1304" x="169.812" y="64.7038" width="0.953221" height="0.953465" filterUnits="userSpaceOnUse" color-interpolation-filters="sRGB">
<feFlood flood-opacity="0" result="BackgroundImageFix"/>
<feBlend mode="normal" in="SourceGraphic" in2="BackgroundImageFix" result="shape"/>
<feGaussianBlur stdDeviation="0.128076" result="effect1_foregroundBlur_33_1304"/>
</filter>
<filter id="filter16_f_33_1304" x="180.609" y="92.3376" width="0.953221" height="0.953465" filterUnits="userSpaceOnUse" color-interpolation-filters="sRGB">
<feFlood flood-opacity="0" result="BackgroundImageFix"/>
<feBlend mode="normal" in="SourceGraphic" in2="BackgroundImageFix" result="shape"/>
<feGaussianBlur stdDeviation="0.128076" result="effect1_foregroundBlur_33_1304"/>
</filter>
<filter id="filter17_f_33_1304" x="-151.316" y="-190.707" width="353.455" height="353.455" filterUnits="userSpaceOnUse" color-interpolation-filters="sRGB">
<feFlood flood-opacity="0" result="BackgroundImageFix"/>
<feBlend mode="normal" in="SourceGraphic" in2="BackgroundImageFix" result="shape"/>
<feGaussianBlur stdDeviation="50.4878" result="effect1_foregroundBlur_33_1304"/>
</filter>
<filter id="filter18_gf_33_1304" x="-169.003" y="-182.724" width="369.385" height="465.798" filterUnits="userSpaceOnUse" color-interpolation-filters="sRGB">
<feFlood flood-opacity="0" result="BackgroundImageFix"/>
<feBlend mode="normal" in="SourceGraphic" in2="BackgroundImageFix" result="shape"/>
<feTurbulence type="fractalNoise" baseFrequency="0.079227052628993988 0.079227052628993988" numOctaves="3" seed="9771" />
<feDisplacementMap in="shape" scale="25.243902206420898" xChannelSelector="R" yChannelSelector="G" result="displacedImage" width="100%" height="100%" />
<feMerge result="effect1_texture_33_1304">
<feMergeNode in="displacedImage"/>
</feMerge>
<feGaussianBlur stdDeviation="2.5" result="effect2_foregroundBlur_33_1304"/>
</filter>
<filter id="filter19_g_33_1304" x="-77.7325" y="-91.9244" width="187.275" height="284.698" filterUnits="userSpaceOnUse" color-interpolation-filters="sRGB">
<feFlood flood-opacity="0" result="BackgroundImageFix"/>
<feBlend mode="normal" in="SourceGraphic" in2="BackgroundImageFix" result="shape"/>
<feTurbulence type="fractalNoise" baseFrequency="0.079227052628993988 0.079227052628993988" numOctaves="3" seed="9771" />
<feDisplacementMap in="shape" scale="25.243902206420898" xChannelSelector="R" yChannelSelector="G" result="displacedImage" width="100%" height="100%" />
<feMerge result="effect1_texture_33_1304">
<feMergeNode in="displacedImage"/>
</feMerge>
</filter>
<filter id="filter20_g_33_1304" x="-77.9374" y="-92.1046" width="187.662" height="285.032" filterUnits="userSpaceOnUse" color-interpolation-filters="sRGB">
<feFlood flood-opacity="0" result="BackgroundImageFix"/>
<feBlend mode="normal" in="SourceGraphic" in2="BackgroundImageFix" result="shape"/>
<feTurbulence type="fractalNoise" baseFrequency="0.079227052628993988 0.079227052628993988" numOctaves="3" seed="9771" />
<feDisplacementMap in="shape" scale="25.243902206420898" xChannelSelector="R" yChannelSelector="G" result="displacedImage" width="100%" height="100%" />
<feMerge result="effect1_texture_33_1304">
<feMergeNode in="displacedImage"/>
</feMerge>
</filter>
<filter id="filter21_gf_33_1304" x="-78.347" y="-92.4647" width="188.436" height="285.7" filterUnits="userSpaceOnUse" color-interpolation-filters="sRGB">
<feFlood flood-opacity="0" result="BackgroundImageFix"/>
<feBlend mode="normal" in="SourceGraphic" in2="BackgroundImageFix" result="shape"/>
<feTurbulence type="fractalNoise" baseFrequency="0.079227052628993988 0.079227052628993988" numOctaves="3" seed="9771" />
<feDisplacementMap in="shape" scale="25.243902206420898" xChannelSelector="R" yChannelSelector="G" result="displacedImage" width="100%" height="100%" />
<feMerge result="effect1_texture_33_1304">
<feMergeNode in="displacedImage"/>
</feMerge>
<feGaussianBlur stdDeviation="2.56151" result="effect2_foregroundBlur_33_1304"/>
</filter>
<filter id="filter22_gf_33_1304" x="-166.544" y="-180.563" width="364.74" height="461.792" filterUnits="userSpaceOnUse" color-interpolation-filters="sRGB">
<feFlood flood-opacity="0" result="BackgroundImageFix"/>
<feBlend mode="normal" in="SourceGraphic" in2="BackgroundImageFix" result="shape"/>
<feTurbulence type="fractalNoise" baseFrequency="0.079227052628993988 0.079227052628993988" numOctaves="3" seed="9771" />
<feDisplacementMap in="shape" scale="25.243902206420898" xChannelSelector="R" yChannelSelector="G" result="displacedImage" width="100%" height="100%" />
<feMerge result="effect1_texture_33_1304">
<feMergeNode in="displacedImage"/>
</feMerge>
<feGaussianBlur stdDeviation="50" result="effect2_foregroundBlur_33_1304"/>
</filter>
<filter id="filter23_g_33_1304" x="-77.6403" y="-77.4401" width="216.044" height="270.121" filterUnits="userSpaceOnUse" color-interpolation-filters="sRGB">
<feFlood flood-opacity="0" result="BackgroundImageFix"/>
<feBlend mode="normal" in="SourceGraphic" in2="BackgroundImageFix" result="shape"/>
<feTurbulence type="fractalNoise" baseFrequency="0.079227052628993988 0.079227052628993988" numOctaves="3" seed="9771" />
<feDisplacementMap in="shape" scale="25.243902206420898" xChannelSelector="R" yChannelSelector="G" result="displacedImage" width="100%" height="100%" />
<feMerge result="effect1_texture_33_1304">
<feMergeNode in="displacedImage"/>
</feMerge>
</filter>
<filter id="filter24_f_33_1304" x="55.0065" y="61.7353" width="1.90644" height="1.90717" filterUnits="userSpaceOnUse" color-interpolation-filters="sRGB">
<feFlood flood-opacity="0" result="BackgroundImageFix"/>
<feBlend mode="normal" in="SourceGraphic" in2="BackgroundImageFix" result="shape"/>
<feGaussianBlur stdDeviation="0.256151" result="effect1_foregroundBlur_33_1304"/>
</filter>
<linearGradient id="paint0_linear_33_1304" x1="221.173" y1="18.147" x2="108.961" y2="297.149" gradientUnits="userSpaceOnUse">
<stop stop-color="#FED000"/>
<stop offset="1" stop-color="#62FFEA" stop-opacity="0"/>
</linearGradient>
<linearGradient id="paint1_linear_33_1304" x1="221.173" y1="18.147" x2="108.961" y2="297.149" gradientUnits="userSpaceOnUse">
<stop stop-color="#FED000"/>
<stop offset="1" stop-color="#917808"/>
</linearGradient>
<linearGradient id="paint2_linear_33_1304" x1="221.173" y1="18.147" x2="108.961" y2="297.149" gradientUnits="userSpaceOnUse">
<stop stop-color="#FED000"/>
<stop offset="1" stop-color="#917808"/>
</linearGradient>
<linearGradient id="paint3_linear_33_1304" x1="221.173" y1="18.147" x2="108.961" y2="297.149" gradientUnits="userSpaceOnUse">
<stop stop-color="#FED000"/>
<stop offset="1" stop-color="#917808"/>
</linearGradient>
<linearGradient id="paint4_linear_33_1304" x1="83.4295" y1="-84.4751" x2="-28.7828" y2="194.527" gradientUnits="userSpaceOnUse">
<stop stop-color="#FED000"/>
<stop offset="1" stop-color="#62FFEA" stop-opacity="0"/>
</linearGradient>
<linearGradient id="paint5_linear_33_1304" x1="83.4295" y1="-84.4751" x2="-28.7828" y2="194.527" gradientUnits="userSpaceOnUse">
<stop stop-color="#FED000"/>
<stop offset="1" stop-color="#917808"/>
</linearGradient>
<linearGradient id="paint6_linear_33_1304" x1="83.4295" y1="-84.4751" x2="-28.7828" y2="194.527" gradientUnits="userSpaceOnUse">
<stop stop-color="#FED000"/>
<stop offset="1" stop-color="#917808"/>
</linearGradient>
<linearGradient id="paint7_linear_33_1304" x1="83.4295" y1="-84.4751" x2="-28.7828" y2="194.527" gradientUnits="userSpaceOnUse">
<stop stop-color="#FED000"/>
<stop offset="1" stop-color="#917808"/>
</linearGradient>
<clipPath id="clip0_33_1304">
<rect width="200" height="200" fill="white"/>
</clipPath>
</defs>
</svg>
