<svg width="23" height="30" viewBox="0 0 23 30" fill="none" xmlns="http://www.w3.org/2000/svg">
<path d="M20.4331 13.2219C20.0622 12.7382 19.6108 12.319 19.1915 11.8997C18.1112 10.9323 16.8858 10.2389 15.8538 9.22309C13.4513 6.86894 12.9192 2.98299 14.451 0C12.9192 0.370858 11.5809 1.20932 10.436 2.12841C6.25986 5.48226 4.61518 11.3999 6.58234 16.479C6.64684 16.6403 6.71134 16.8015 6.71134 17.0111C6.71134 17.3659 6.46948 17.6883 6.14699 17.8173C5.77613 17.9786 5.38915 17.8818 5.08279 17.6238C4.99127 17.5472 4.91474 17.4542 4.85705 17.3497C3.035 15.044 2.74477 11.7385 3.97021 9.0941C1.27746 11.287 -0.189853 14.9956 0.0197631 18.4946C0.116509 19.3008 0.213254 20.107 0.487367 20.9132C0.713107 21.8807 1.14846 22.8481 1.63219 23.7027C3.37361 26.4922 6.38885 28.4916 9.62983 28.8947C13.0804 29.3301 16.7729 28.7012 19.4173 26.3148C22.368 23.6382 23.4 19.3491 21.8843 15.6728L21.6747 15.2536C21.3361 14.5119 20.4331 13.2219 20.4331 13.2219ZM15.3378 23.3802C14.8863 23.7672 14.1446 24.1864 13.5642 24.3477C11.7582 24.9926 9.95232 24.0897 8.88812 23.0255C10.8069 22.574 11.9517 21.1551 12.2903 19.72C12.5645 18.4301 12.0485 17.3659 11.8389 16.1243C11.6454 14.9311 11.6776 13.9153 12.113 12.8027C12.4193 13.4154 12.7418 14.0281 13.1288 14.5119C14.3704 16.1243 16.3214 16.8337 16.7406 19.0267C16.8051 19.2524 16.8374 19.4781 16.8374 19.72C16.8858 21.0422 16.3053 22.4934 15.3378 23.3802Z" fill="black"/>
</svg>
