<svg width="59" height="58" viewBox="0 0 59 58" fill="none" xmlns="http://www.w3.org/2000/svg">
<path d="M29.5 0C25.626 0 21.7899 0.76304 18.2108 2.24555C14.6317 3.72807 11.3797 5.90102 8.64035 8.64035C3.10803 14.1727 0 21.6761 0 29.5C0 42.539 8.4665 53.6015 20.178 57.525C21.653 57.761 22.125 56.8465 22.125 56.05V51.0645C13.9535 52.8345 12.213 47.1115 12.213 47.1115C10.856 43.6895 8.9385 42.775 8.9385 42.775C6.254 40.946 9.145 41.005 9.145 41.005C12.095 41.2115 13.6585 44.0435 13.6585 44.0435C16.225 48.5275 20.5615 47.2 22.243 46.492C22.5085 44.5745 23.2755 43.2765 24.1015 42.539C17.5525 41.8015 10.679 39.2645 10.679 28.025C10.679 24.7505 11.8 22.125 13.7175 20.0305C13.4225 19.293 12.39 16.225 14.0125 12.2425C14.0125 12.2425 16.4905 11.446 22.125 15.2515C24.4555 14.6025 26.9925 14.278 29.5 14.278C32.0075 14.278 34.5445 14.6025 36.875 15.2515C42.5095 11.446 44.9875 12.2425 44.9875 12.2425C46.61 16.225 45.5775 19.293 45.2825 20.0305C47.2 22.125 48.321 24.7505 48.321 28.025C48.321 39.294 41.418 41.772 34.8395 42.5095C35.9015 43.424 36.875 45.2235 36.875 47.967V56.05C36.875 56.8465 37.347 57.7905 38.8515 57.525C50.563 53.572 59 42.539 59 29.5C59 25.626 58.237 21.7899 56.7544 18.2108C55.2719 14.6317 53.099 11.3797 50.3596 8.64035C47.6203 5.90102 44.3683 3.72807 40.7892 2.24555C37.2101 0.76304 33.374 0 29.5 0Z" fill="#FED000"/>
</svg>
