<svg width="1920" height="1080" viewBox="0 0 1920 1080" fill="none" xmlns="http://www.w3.org/2000/svg">
<g clip-path="url(#clip0_30_967)">
<rect width="1920" height="1080" fill="#171515"/>
<g opacity="0.25">
<g style="mix-blend-mode:plus-lighter" opacity="0.15" filter="url(#filter0_f_30_967)">
<circle cx="770.725" cy="215.92" r="145.221" transform="rotate(21.9096 770.725 215.92)" fill="#FED000"/>
</g>
<g style="mix-blend-mode:plus-lighter" opacity="0.6" filter="url(#filter1_gf_30_967)">
<path d="M882.57 91.0037L739.742 235.513L815.234 295.286L819.071 375.258L700.35 417.702L572.608 587.886" stroke="url(#paint0_linear_30_967)" stroke-width="19.6475"/>
</g>
<g filter="url(#filter2_g_30_967)">
<path d="M882.57 91.0037L739.742 235.513L815.234 295.286L819.071 375.258L700.35 417.702L572.608 587.886" stroke="white" stroke-width="0.982377"/>
</g>
<g style="mix-blend-mode:plus-lighter" filter="url(#filter3_g_30_967)">
<path d="M882.57 91.0037L739.742 235.513L815.234 295.286L819.071 375.258L700.35 417.702L572.608 587.886" stroke="url(#paint1_linear_30_967)" stroke-width="1.96475"/>
</g>
<g style="mix-blend-mode:plus-lighter" filter="url(#filter4_gf_30_967)">
<path d="M882.57 91.0037L739.742 235.513L815.234 295.286L819.071 375.258L700.35 417.702L572.608 587.886" stroke="url(#paint2_linear_30_967)" stroke-width="3.92951"/>
</g>
<g style="mix-blend-mode:plus-lighter" filter="url(#filter5_gf_30_967)">
<path d="M882.57 91.0037L739.742 235.513L815.234 295.286L819.071 375.258L700.35 417.702L572.608 587.886" stroke="url(#paint3_linear_30_967)" stroke-width="7.85901"/>
</g>
<g style="mix-blend-mode:plus-lighter" filter="url(#filter6_g_30_967)">
<path d="M938.158 118.654L792.268 189.159L815.234 295.286L747.744 389.376L663.407 420.046L572.608 587.886" stroke="white" stroke-width="0.491188"/>
</g>
<g style="mix-blend-mode:plus-lighter" filter="url(#filter7_f_30_967)">
<path d="M806.809 165.315C807.377 164.952 808.133 165.256 808.292 165.911L808.434 166.499C808.534 166.907 808.362 167.333 808.008 167.559L807.498 167.884C806.93 168.246 806.175 167.942 806.016 167.287L805.873 166.7C805.774 166.292 805.945 165.866 806.299 165.64L806.809 165.315Z" fill="#FED000"/>
</g>
<g style="mix-blend-mode:plus-lighter" filter="url(#filter8_f_30_967)">
<path d="M753.041 237.716C753.609 237.354 754.365 237.658 754.524 238.312L754.666 238.9C754.766 239.308 754.594 239.734 754.24 239.96L753.73 240.285C753.162 240.647 752.407 240.343 752.247 239.689L752.105 239.101C752.006 238.693 752.177 238.267 752.531 238.041L753.041 237.716Z" fill="#FED000" fill-opacity="0.25"/>
</g>
<g style="mix-blend-mode:plus-lighter" filter="url(#filter9_f_30_967)">
<path d="M817.146 195.329C817.714 194.967 818.47 195.271 818.629 195.925L818.983 197.381C819.082 197.789 818.91 198.215 818.556 198.441L817.293 199.247C816.725 199.609 815.969 199.305 815.81 198.651L815.457 197.195C815.357 196.786 815.529 196.36 815.883 196.134L817.146 195.329Z" fill="#FED000" fill-opacity="0.25"/>
</g>
<g style="mix-blend-mode:plus-lighter" filter="url(#filter10_f_30_967)">
<path d="M805.634 164.058C806.202 163.696 806.958 164 807.117 164.654L807.47 166.11C807.57 166.518 807.398 166.945 807.044 167.17L805.781 167.976C805.213 168.338 804.457 168.034 804.298 167.38L803.944 165.924C803.845 165.516 804.017 165.09 804.371 164.864L805.634 164.058Z" fill="#FED000" fill-opacity="0.25"/>
</g>
<g style="mix-blend-mode:plus-lighter" filter="url(#filter11_f_30_967)">
<path d="M803.921 362.224C804.41 361.912 805.061 362.174 805.198 362.737C805.283 363.089 805.136 363.455 804.831 363.65C804.342 363.962 803.691 363.7 803.554 363.136C803.469 362.785 803.617 362.418 803.921 362.224Z" fill="#F5FF62" fill-opacity="0.5"/>
</g>
<g style="mix-blend-mode:plus-lighter" filter="url(#filter12_f_30_967)">
<path d="M778.37 163.895C778.859 163.583 779.509 163.845 779.646 164.408C779.732 164.759 779.584 165.126 779.279 165.321C778.79 165.632 778.14 165.371 778.003 164.807C777.918 164.456 778.065 164.089 778.37 163.895Z" fill="#FED000"/>
</g>
<g style="mix-blend-mode:plus-lighter" filter="url(#filter13_f_30_967)">
<path d="M796.106 198.717C796.351 198.561 796.676 198.692 796.744 198.974C796.787 199.15 796.713 199.333 796.561 199.43C796.316 199.586 795.991 199.455 795.923 199.174C795.88 198.998 795.954 198.815 796.106 198.717Z" fill="#FED000"/>
</g>
<g style="mix-blend-mode:plus-lighter" filter="url(#filter14_f_30_967)">
<path d="M771.634 185.741C771.879 185.586 772.204 185.716 772.273 185.998C772.315 186.174 772.242 186.357 772.089 186.454C771.845 186.61 771.519 186.48 771.451 186.198C771.408 186.022 771.482 185.839 771.634 185.741Z" fill="#FED000"/>
</g>
<g style="mix-blend-mode:plus-lighter" filter="url(#filter15_f_30_967)">
<path d="M832.634 141.323C832.879 141.167 833.204 141.297 833.272 141.579C833.315 141.755 833.241 141.938 833.089 142.035C832.844 142.191 832.519 142.061 832.451 141.779C832.408 141.603 832.482 141.42 832.634 141.323Z" fill="#FED000" fill-opacity="0.25"/>
</g>
<g style="mix-blend-mode:plus-lighter" filter="url(#filter16_f_30_967)">
<path d="M759.248 170.574C759.492 170.418 759.818 170.548 759.886 170.83C759.929 171.006 759.855 171.189 759.703 171.286C759.458 171.442 759.133 171.312 759.064 171.03C759.022 170.854 759.096 170.671 759.248 170.574Z" fill="#FED000" fill-opacity="0.25"/>
</g>
<g style="mix-blend-mode:plus-lighter" filter="url(#filter17_f_30_967)">
<path d="M779.952 223.563C780.196 223.407 780.521 223.538 780.59 223.819C780.632 223.995 780.559 224.178 780.406 224.276C780.162 224.432 779.837 224.301 779.768 224.019C779.725 223.843 779.799 223.66 779.952 223.563Z" fill="#F5FF62" fill-opacity="0.5"/>
</g>
</g>
<g opacity="0.1">
<g style="mix-blend-mode:plus-lighter" opacity="0.15" filter="url(#filter18_f_30_967)">
<circle cx="1133.73" cy="649.92" r="145.221" transform="rotate(21.9096 1133.73 649.92)" fill="#FED000"/>
</g>
<g style="mix-blend-mode:plus-lighter" opacity="0.6" filter="url(#filter19_gf_30_967)">
<path d="M1245.57 525.004L1102.74 669.513L1178.23 729.286L1182.07 809.258L1063.35 851.702L935.608 1021.89" stroke="url(#paint4_linear_30_967)" stroke-width="19.6475"/>
</g>
<g filter="url(#filter20_g_30_967)">
<path d="M1245.57 525.004L1102.74 669.513L1178.23 729.286L1182.07 809.258L1063.35 851.702L935.608 1021.89" stroke="white" stroke-width="0.982377"/>
</g>
<g style="mix-blend-mode:plus-lighter" filter="url(#filter21_g_30_967)">
<path d="M1245.57 525.004L1102.74 669.513L1178.23 729.286L1182.07 809.258L1063.35 851.702L935.608 1021.89" stroke="url(#paint5_linear_30_967)" stroke-width="1.96475"/>
</g>
<g style="mix-blend-mode:plus-lighter" filter="url(#filter22_gf_30_967)">
<path d="M1245.57 525.004L1102.74 669.513L1178.23 729.286L1182.07 809.258L1063.35 851.702L935.608 1021.89" stroke="url(#paint6_linear_30_967)" stroke-width="3.92951"/>
</g>
<g style="mix-blend-mode:plus-lighter" filter="url(#filter23_gf_30_967)">
<path d="M1245.57 525.004L1102.74 669.513L1178.23 729.286L1182.07 809.258L1063.35 851.702L935.608 1021.89" stroke="url(#paint7_linear_30_967)" stroke-width="7.85901"/>
</g>
<g style="mix-blend-mode:plus-lighter" filter="url(#filter24_g_30_967)">
<path d="M1301.16 552.654L1155.27 623.159L1178.23 729.286L1110.74 823.376L1026.41 854.046L935.608 1021.89" stroke="white" stroke-width="0.491188"/>
</g>
<g style="mix-blend-mode:plus-lighter" filter="url(#filter25_f_30_967)">
<path d="M1169.81 599.315C1170.38 598.953 1171.13 599.257 1171.29 599.911L1171.43 600.499C1171.53 600.907 1171.36 601.333 1171.01 601.559L1170.5 601.884C1169.93 602.246 1169.17 601.942 1169.02 601.288L1168.87 600.7C1168.77 600.292 1168.95 599.866 1169.3 599.64L1169.81 599.315Z" fill="#FED000"/>
</g>
<g style="mix-blend-mode:plus-lighter" filter="url(#filter26_f_30_967)">
<path d="M1116.04 671.716C1116.61 671.354 1117.36 671.658 1117.52 672.313L1117.67 672.9C1117.77 673.308 1117.59 673.734 1117.24 673.96L1116.73 674.285C1116.16 674.647 1115.41 674.344 1115.25 673.689L1115.1 673.101C1115.01 672.693 1115.18 672.267 1115.53 672.041L1116.04 671.716Z" fill="#FED000" fill-opacity="0.25"/>
</g>
<g style="mix-blend-mode:plus-lighter" filter="url(#filter27_f_30_967)">
<path d="M1180.15 629.329C1180.71 628.967 1181.47 629.271 1181.63 629.925L1181.98 631.381C1182.08 631.789 1181.91 632.216 1181.56 632.441L1180.29 633.247C1179.72 633.609 1178.97 633.305 1178.81 632.651L1178.46 631.195C1178.36 630.787 1178.53 630.36 1178.88 630.135L1180.15 629.329Z" fill="#FED000" fill-opacity="0.25"/>
</g>
<g style="mix-blend-mode:plus-lighter" filter="url(#filter28_f_30_967)">
<path d="M1168.63 598.058C1169.2 597.696 1169.96 598 1170.12 598.655L1170.47 600.11C1170.57 600.519 1170.4 600.945 1170.04 601.171L1168.78 601.976C1168.21 602.338 1167.46 602.034 1167.3 601.38L1166.94 599.924C1166.85 599.516 1167.02 599.09 1167.37 598.864L1168.63 598.058Z" fill="#FED000" fill-opacity="0.25"/>
</g>
<g style="mix-blend-mode:plus-lighter" filter="url(#filter29_f_30_967)">
<path d="M1166.92 796.224C1167.41 795.912 1168.06 796.174 1168.2 796.737C1168.28 797.089 1168.14 797.456 1167.83 797.65C1167.34 797.962 1166.69 797.7 1166.55 797.137C1166.47 796.785 1166.62 796.418 1166.92 796.224Z" fill="#F5FF62" fill-opacity="0.5"/>
</g>
<g style="mix-blend-mode:plus-lighter" filter="url(#filter30_f_30_967)">
<path d="M1141.37 597.895C1141.86 597.583 1142.51 597.845 1142.65 598.408C1142.73 598.759 1142.58 599.126 1142.28 599.321C1141.79 599.632 1141.14 599.371 1141 598.807C1140.92 598.456 1141.07 598.089 1141.37 597.895Z" fill="#FED000"/>
</g>
<g style="mix-blend-mode:plus-lighter" filter="url(#filter31_f_30_967)">
<path d="M1159.11 632.717C1159.35 632.562 1159.68 632.692 1159.74 632.974C1159.79 633.15 1159.71 633.333 1159.56 633.43C1159.32 633.586 1158.99 633.455 1158.92 633.174C1158.88 632.998 1158.95 632.815 1159.11 632.717Z" fill="#FED000"/>
</g>
<g style="mix-blend-mode:plus-lighter" filter="url(#filter32_f_30_967)">
<path d="M1134.63 619.742C1134.88 619.586 1135.2 619.717 1135.27 619.998C1135.32 620.174 1135.24 620.357 1135.09 620.455C1134.84 620.61 1134.52 620.48 1134.45 620.198C1134.41 620.022 1134.48 619.839 1134.63 619.742Z" fill="#FED000"/>
</g>
<g style="mix-blend-mode:plus-lighter" filter="url(#filter33_f_30_967)">
<path d="M1195.63 575.323C1195.88 575.167 1196.2 575.298 1196.27 575.579C1196.31 575.755 1196.24 575.938 1196.09 576.036C1195.84 576.191 1195.52 576.061 1195.45 575.779C1195.41 575.603 1195.48 575.42 1195.63 575.323Z" fill="#FED000" fill-opacity="0.25"/>
</g>
<g style="mix-blend-mode:plus-lighter" filter="url(#filter34_f_30_967)">
<path d="M1122.25 604.574C1122.49 604.418 1122.82 604.548 1122.89 604.83C1122.93 605.006 1122.86 605.189 1122.7 605.287C1122.46 605.442 1122.13 605.312 1122.06 605.03C1122.02 604.854 1122.1 604.671 1122.25 604.574Z" fill="#FED000" fill-opacity="0.25"/>
</g>
<g style="mix-blend-mode:plus-lighter" filter="url(#filter35_f_30_967)">
<path d="M1142.95 657.563C1143.2 657.407 1143.52 657.538 1143.59 657.82C1143.63 657.995 1143.56 658.179 1143.41 658.276C1143.16 658.432 1142.84 658.301 1142.77 658.019C1142.73 657.843 1142.8 657.66 1142.95 657.563Z" fill="#F5FF62" fill-opacity="0.5"/>
</g>
</g>
</g>
<defs>
<filter id="filter0_f_30_967" x="431.838" y="-122.967" width="677.775" height="677.775" filterUnits="userSpaceOnUse" color-interpolation-filters="sRGB">
<feFlood flood-opacity="0" result="BackgroundImageFix"/>
<feBlend mode="normal" in="SourceGraphic" in2="BackgroundImageFix" result="shape"/>
<feGaussianBlur stdDeviation="96.8139" result="effect1_foregroundBlur_30_967"/>
</filter>
<filter id="filter1_gf_30_967" x="464.751" y="-15.902" width="524.807" height="709.685" filterUnits="userSpaceOnUse" color-interpolation-filters="sRGB">
<feFlood flood-opacity="0" result="BackgroundImageFix"/>
<feBlend mode="normal" in="SourceGraphic" in2="BackgroundImageFix" result="shape"/>
<feTurbulence type="fractalNoise" baseFrequency="0.041316371411085129 0.041316371411085129" numOctaves="3" seed="9771" />
<feDisplacementMap in="shape" scale="48.406959533691406" xChannelSelector="R" yChannelSelector="G" result="displacedImage" width="100%" height="100%" />
<feMerge result="effect1_texture_30_967">
<feMergeNode in="displacedImage"/>
</feMerge>
<feGaussianBlur stdDeviation="2.5" result="effect2_foregroundBlur_30_967"/>
</filter>
<filter id="filter2_g_30_967" x="548.011" y="66.455" width="359.112" height="545.93" filterUnits="userSpaceOnUse" color-interpolation-filters="sRGB">
<feFlood flood-opacity="0" result="BackgroundImageFix"/>
<feBlend mode="normal" in="SourceGraphic" in2="BackgroundImageFix" result="shape"/>
<feTurbulence type="fractalNoise" baseFrequency="0.041316371411085129 0.041316371411085129" numOctaves="3" seed="9771" />
<feDisplacementMap in="shape" scale="48.406959533691406" xChannelSelector="R" yChannelSelector="G" result="displacedImage" width="100%" height="100%" />
<feMerge result="effect1_texture_30_967">
<feMergeNode in="displacedImage"/>
</feMerge>
</filter>
<filter id="filter3_g_30_967" x="547.618" y="66.1096" width="359.854" height="546.57" filterUnits="userSpaceOnUse" color-interpolation-filters="sRGB">
<feFlood flood-opacity="0" result="BackgroundImageFix"/>
<feBlend mode="normal" in="SourceGraphic" in2="BackgroundImageFix" result="shape"/>
<feTurbulence type="fractalNoise" baseFrequency="0.041316371411085129 0.041316371411085129" numOctaves="3" seed="9771" />
<feDisplacementMap in="shape" scale="48.406959533691406" xChannelSelector="R" yChannelSelector="G" result="displacedImage" width="100%" height="100%" />
<feMerge result="effect1_texture_30_967">
<feMergeNode in="displacedImage"/>
</feMerge>
</filter>
<filter id="filter4_gf_30_967" x="546.833" y="65.4191" width="361.339" height="547.85" filterUnits="userSpaceOnUse" color-interpolation-filters="sRGB">
<feFlood flood-opacity="0" result="BackgroundImageFix"/>
<feBlend mode="normal" in="SourceGraphic" in2="BackgroundImageFix" result="shape"/>
<feTurbulence type="fractalNoise" baseFrequency="0.041316371411085129 0.041316371411085129" numOctaves="3" seed="9771" />
<feDisplacementMap in="shape" scale="48.406959533691406" xChannelSelector="R" yChannelSelector="G" result="displacedImage" width="100%" height="100%" />
<feMerge result="effect1_texture_30_967">
<feMergeNode in="displacedImage"/>
</feMerge>
<feGaussianBlur stdDeviation="4.91188" result="effect2_foregroundBlur_30_967"/>
</filter>
<filter id="filter5_gf_30_967" x="469.465" y="-11.7585" width="515.9" height="702.004" filterUnits="userSpaceOnUse" color-interpolation-filters="sRGB">
<feFlood flood-opacity="0" result="BackgroundImageFix"/>
<feBlend mode="normal" in="SourceGraphic" in2="BackgroundImageFix" result="shape"/>
<feTurbulence type="fractalNoise" baseFrequency="0.041316371411085129 0.041316371411085129" numOctaves="3" seed="9771" />
<feDisplacementMap in="shape" scale="48.406959533691406" xChannelSelector="R" yChannelSelector="G" result="displacedImage" width="100%" height="100%" />
<feMerge result="effect1_texture_30_967">
<feMergeNode in="displacedImage"/>
</feMerge>
<feGaussianBlur stdDeviation="50" result="effect2_foregroundBlur_30_967"/>
</filter>
<filter id="filter6_g_30_967" x="548.188" y="94.2299" width="414.28" height="517.976" filterUnits="userSpaceOnUse" color-interpolation-filters="sRGB">
<feFlood flood-opacity="0" result="BackgroundImageFix"/>
<feBlend mode="normal" in="SourceGraphic" in2="BackgroundImageFix" result="shape"/>
<feTurbulence type="fractalNoise" baseFrequency="0.041316371411085129 0.041316371411085129" numOctaves="3" seed="9771" />
<feDisplacementMap in="shape" scale="48.406959533691406" xChannelSelector="R" yChannelSelector="G" result="displacedImage" width="100%" height="100%" />
<feMerge result="effect1_texture_30_967">
<feMergeNode in="displacedImage"/>
</feMerge>
</filter>
<filter id="filter7_f_30_967" x="804.863" y="164.178" width="4.58218" height="4.84342" filterUnits="userSpaceOnUse" color-interpolation-filters="sRGB">
<feFlood flood-opacity="0" result="BackgroundImageFix"/>
<feBlend mode="normal" in="SourceGraphic" in2="BackgroundImageFix" result="shape"/>
<feGaussianBlur stdDeviation="0.491188" result="effect1_foregroundBlur_30_967"/>
</filter>
<filter id="filter8_f_30_967" x="751.095" y="236.579" width="4.58218" height="4.84342" filterUnits="userSpaceOnUse" color-interpolation-filters="sRGB">
<feFlood flood-opacity="0" result="BackgroundImageFix"/>
<feBlend mode="normal" in="SourceGraphic" in2="BackgroundImageFix" result="shape"/>
<feGaussianBlur stdDeviation="0.491188" result="effect1_foregroundBlur_30_967"/>
</filter>
<filter id="filter9_f_30_967" x="812.482" y="192.227" width="9.47605" height="10.1218" filterUnits="userSpaceOnUse" color-interpolation-filters="sRGB">
<feFlood flood-opacity="0" result="BackgroundImageFix"/>
<feBlend mode="normal" in="SourceGraphic" in2="BackgroundImageFix" result="shape"/>
<feGaussianBlur stdDeviation="1.47356" result="effect1_foregroundBlur_30_967"/>
</filter>
<filter id="filter10_f_30_967" x="802.934" y="162.921" width="5.54654" height="6.19229" filterUnits="userSpaceOnUse" color-interpolation-filters="sRGB">
<feFlood flood-opacity="0" result="BackgroundImageFix"/>
<feBlend mode="normal" in="SourceGraphic" in2="BackgroundImageFix" result="shape"/>
<feGaussianBlur stdDeviation="0.491188" result="effect1_foregroundBlur_30_967"/>
</filter>
<filter id="filter11_f_30_967" x="802.548" y="361.108" width="3.65592" height="3.65707" filterUnits="userSpaceOnUse" color-interpolation-filters="sRGB">
<feFlood flood-opacity="0" result="BackgroundImageFix"/>
<feBlend mode="normal" in="SourceGraphic" in2="BackgroundImageFix" result="shape"/>
<feGaussianBlur stdDeviation="0.491188" result="effect1_foregroundBlur_30_967"/>
</filter>
<filter id="filter12_f_30_967" x="777.488" y="163.27" width="2.67354" height="2.67476" filterUnits="userSpaceOnUse" color-interpolation-filters="sRGB">
<feFlood flood-opacity="0" result="BackgroundImageFix"/>
<feBlend mode="normal" in="SourceGraphic" in2="BackgroundImageFix" result="shape"/>
<feGaussianBlur stdDeviation="0.245594" result="effect1_foregroundBlur_30_967"/>
</filter>
<filter id="filter13_f_30_967" x="795.419" y="198.159" width="1.82808" height="1.82857" filterUnits="userSpaceOnUse" color-interpolation-filters="sRGB">
<feFlood flood-opacity="0" result="BackgroundImageFix"/>
<feBlend mode="normal" in="SourceGraphic" in2="BackgroundImageFix" result="shape"/>
<feGaussianBlur stdDeviation="0.245594" result="effect1_foregroundBlur_30_967"/>
</filter>
<filter id="filter14_f_30_967" x="770.948" y="185.184" width="1.82808" height="1.82857" filterUnits="userSpaceOnUse" color-interpolation-filters="sRGB">
<feFlood flood-opacity="0" result="BackgroundImageFix"/>
<feBlend mode="normal" in="SourceGraphic" in2="BackgroundImageFix" result="shape"/>
<feGaussianBlur stdDeviation="0.245594" result="effect1_foregroundBlur_30_967"/>
</filter>
<filter id="filter15_f_30_967" x="831.948" y="140.765" width="1.82808" height="1.82857" filterUnits="userSpaceOnUse" color-interpolation-filters="sRGB">
<feFlood flood-opacity="0" result="BackgroundImageFix"/>
<feBlend mode="normal" in="SourceGraphic" in2="BackgroundImageFix" result="shape"/>
<feGaussianBlur stdDeviation="0.245594" result="effect1_foregroundBlur_30_967"/>
</filter>
<filter id="filter16_f_30_967" x="758.561" y="170.016" width="1.82808" height="1.82857" filterUnits="userSpaceOnUse" color-interpolation-filters="sRGB">
<feFlood flood-opacity="0" result="BackgroundImageFix"/>
<feBlend mode="normal" in="SourceGraphic" in2="BackgroundImageFix" result="shape"/>
<feGaussianBlur stdDeviation="0.245594" result="effect1_foregroundBlur_30_967"/>
</filter>
<filter id="filter17_f_30_967" x="779.265" y="223.005" width="1.82808" height="1.82857" filterUnits="userSpaceOnUse" color-interpolation-filters="sRGB">
<feFlood flood-opacity="0" result="BackgroundImageFix"/>
<feBlend mode="normal" in="SourceGraphic" in2="BackgroundImageFix" result="shape"/>
<feGaussianBlur stdDeviation="0.245594" result="effect1_foregroundBlur_30_967"/>
</filter>
<filter id="filter18_f_30_967" x="794.838" y="311.033" width="677.775" height="677.775" filterUnits="userSpaceOnUse" color-interpolation-filters="sRGB">
<feFlood flood-opacity="0" result="BackgroundImageFix"/>
<feBlend mode="normal" in="SourceGraphic" in2="BackgroundImageFix" result="shape"/>
<feGaussianBlur stdDeviation="96.8139" result="effect1_foregroundBlur_30_967"/>
</filter>
<filter id="filter19_gf_30_967" x="827.751" y="418.098" width="524.807" height="709.685" filterUnits="userSpaceOnUse" color-interpolation-filters="sRGB">
<feFlood flood-opacity="0" result="BackgroundImageFix"/>
<feBlend mode="normal" in="SourceGraphic" in2="BackgroundImageFix" result="shape"/>
<feTurbulence type="fractalNoise" baseFrequency="0.041316371411085129 0.041316371411085129" numOctaves="3" seed="9771" />
<feDisplacementMap in="shape" scale="48.406959533691406" xChannelSelector="R" yChannelSelector="G" result="displacedImage" width="100%" height="100%" />
<feMerge result="effect1_texture_30_967">
<feMergeNode in="displacedImage"/>
</feMerge>
<feGaussianBlur stdDeviation="2.5" result="effect2_foregroundBlur_30_967"/>
</filter>
<filter id="filter20_g_30_967" x="911.011" y="500.455" width="359.112" height="545.93" filterUnits="userSpaceOnUse" color-interpolation-filters="sRGB">
<feFlood flood-opacity="0" result="BackgroundImageFix"/>
<feBlend mode="normal" in="SourceGraphic" in2="BackgroundImageFix" result="shape"/>
<feTurbulence type="fractalNoise" baseFrequency="0.041316371411085129 0.041316371411085129" numOctaves="3" seed="9771" />
<feDisplacementMap in="shape" scale="48.406959533691406" xChannelSelector="R" yChannelSelector="G" result="displacedImage" width="100%" height="100%" />
<feMerge result="effect1_texture_30_967">
<feMergeNode in="displacedImage"/>
</feMerge>
</filter>
<filter id="filter21_g_30_967" x="910.619" y="500.11" width="359.854" height="546.57" filterUnits="userSpaceOnUse" color-interpolation-filters="sRGB">
<feFlood flood-opacity="0" result="BackgroundImageFix"/>
<feBlend mode="normal" in="SourceGraphic" in2="BackgroundImageFix" result="shape"/>
<feTurbulence type="fractalNoise" baseFrequency="0.041316371411085129 0.041316371411085129" numOctaves="3" seed="9771" />
<feDisplacementMap in="shape" scale="48.406959533691406" xChannelSelector="R" yChannelSelector="G" result="displacedImage" width="100%" height="100%" />
<feMerge result="effect1_texture_30_967">
<feMergeNode in="displacedImage"/>
</feMerge>
</filter>
<filter id="filter22_gf_30_967" x="909.833" y="499.419" width="361.339" height="547.85" filterUnits="userSpaceOnUse" color-interpolation-filters="sRGB">
<feFlood flood-opacity="0" result="BackgroundImageFix"/>
<feBlend mode="normal" in="SourceGraphic" in2="BackgroundImageFix" result="shape"/>
<feTurbulence type="fractalNoise" baseFrequency="0.041316371411085129 0.041316371411085129" numOctaves="3" seed="9771" />
<feDisplacementMap in="shape" scale="48.406959533691406" xChannelSelector="R" yChannelSelector="G" result="displacedImage" width="100%" height="100%" />
<feMerge result="effect1_texture_30_967">
<feMergeNode in="displacedImage"/>
</feMerge>
<feGaussianBlur stdDeviation="4.91188" result="effect2_foregroundBlur_30_967"/>
</filter>
<filter id="filter23_gf_30_967" x="832.465" y="422.242" width="515.901" height="702.004" filterUnits="userSpaceOnUse" color-interpolation-filters="sRGB">
<feFlood flood-opacity="0" result="BackgroundImageFix"/>
<feBlend mode="normal" in="SourceGraphic" in2="BackgroundImageFix" result="shape"/>
<feTurbulence type="fractalNoise" baseFrequency="0.041316371411085129 0.041316371411085129" numOctaves="3" seed="9771" />
<feDisplacementMap in="shape" scale="48.406959533691406" xChannelSelector="R" yChannelSelector="G" result="displacedImage" width="100%" height="100%" />
<feMerge result="effect1_texture_30_967">
<feMergeNode in="displacedImage"/>
</feMerge>
<feGaussianBlur stdDeviation="50" result="effect2_foregroundBlur_30_967"/>
</filter>
<filter id="filter24_g_30_967" x="911.189" y="528.23" width="414.28" height="517.977" filterUnits="userSpaceOnUse" color-interpolation-filters="sRGB">
<feFlood flood-opacity="0" result="BackgroundImageFix"/>
<feBlend mode="normal" in="SourceGraphic" in2="BackgroundImageFix" result="shape"/>
<feTurbulence type="fractalNoise" baseFrequency="0.041316371411085129 0.041316371411085129" numOctaves="3" seed="9771" />
<feDisplacementMap in="shape" scale="48.406959533691406" xChannelSelector="R" yChannelSelector="G" result="displacedImage" width="100%" height="100%" />
<feMerge result="effect1_texture_30_967">
<feMergeNode in="displacedImage"/>
</feMerge>
</filter>
<filter id="filter25_f_30_967" x="1167.86" y="598.178" width="4.58194" height="4.84335" filterUnits="userSpaceOnUse" color-interpolation-filters="sRGB">
<feFlood flood-opacity="0" result="BackgroundImageFix"/>
<feBlend mode="normal" in="SourceGraphic" in2="BackgroundImageFix" result="shape"/>
<feGaussianBlur stdDeviation="0.491188" result="effect1_foregroundBlur_30_967"/>
</filter>
<filter id="filter26_f_30_967" x="1114.09" y="670.579" width="4.58194" height="4.84335" filterUnits="userSpaceOnUse" color-interpolation-filters="sRGB">
<feFlood flood-opacity="0" result="BackgroundImageFix"/>
<feBlend mode="normal" in="SourceGraphic" in2="BackgroundImageFix" result="shape"/>
<feGaussianBlur stdDeviation="0.491188" result="effect1_foregroundBlur_30_967"/>
</filter>
<filter id="filter27_f_30_967" x="1175.48" y="626.227" width="9.4758" height="10.1218" filterUnits="userSpaceOnUse" color-interpolation-filters="sRGB">
<feFlood flood-opacity="0" result="BackgroundImageFix"/>
<feBlend mode="normal" in="SourceGraphic" in2="BackgroundImageFix" result="shape"/>
<feGaussianBlur stdDeviation="1.47356" result="effect1_foregroundBlur_30_967"/>
</filter>
<filter id="filter28_f_30_967" x="1165.93" y="596.921" width="5.5463" height="6.19229" filterUnits="userSpaceOnUse" color-interpolation-filters="sRGB">
<feFlood flood-opacity="0" result="BackgroundImageFix"/>
<feBlend mode="normal" in="SourceGraphic" in2="BackgroundImageFix" result="shape"/>
<feGaussianBlur stdDeviation="0.491188" result="effect1_foregroundBlur_30_967"/>
</filter>
<filter id="filter29_f_30_967" x="1165.55" y="795.108" width="3.65616" height="3.65707" filterUnits="userSpaceOnUse" color-interpolation-filters="sRGB">
<feFlood flood-opacity="0" result="BackgroundImageFix"/>
<feBlend mode="normal" in="SourceGraphic" in2="BackgroundImageFix" result="shape"/>
<feGaussianBlur stdDeviation="0.491188" result="effect1_foregroundBlur_30_967"/>
</filter>
<filter id="filter30_f_30_967" x="1140.49" y="597.27" width="2.67378" height="2.6747" filterUnits="userSpaceOnUse" color-interpolation-filters="sRGB">
<feFlood flood-opacity="0" result="BackgroundImageFix"/>
<feBlend mode="normal" in="SourceGraphic" in2="BackgroundImageFix" result="shape"/>
<feGaussianBlur stdDeviation="0.245594" result="effect1_foregroundBlur_30_967"/>
</filter>
<filter id="filter31_f_30_967" x="1158.42" y="632.16" width="1.82808" height="1.82857" filterUnits="userSpaceOnUse" color-interpolation-filters="sRGB">
<feFlood flood-opacity="0" result="BackgroundImageFix"/>
<feBlend mode="normal" in="SourceGraphic" in2="BackgroundImageFix" result="shape"/>
<feGaussianBlur stdDeviation="0.245594" result="effect1_foregroundBlur_30_967"/>
</filter>
<filter id="filter32_f_30_967" x="1133.95" y="619.184" width="1.82808" height="1.82857" filterUnits="userSpaceOnUse" color-interpolation-filters="sRGB">
<feFlood flood-opacity="0" result="BackgroundImageFix"/>
<feBlend mode="normal" in="SourceGraphic" in2="BackgroundImageFix" result="shape"/>
<feGaussianBlur stdDeviation="0.245594" result="effect1_foregroundBlur_30_967"/>
</filter>
<filter id="filter33_f_30_967" x="1194.95" y="574.765" width="1.82808" height="1.82857" filterUnits="userSpaceOnUse" color-interpolation-filters="sRGB">
<feFlood flood-opacity="0" result="BackgroundImageFix"/>
<feBlend mode="normal" in="SourceGraphic" in2="BackgroundImageFix" result="shape"/>
<feGaussianBlur stdDeviation="0.245594" result="effect1_foregroundBlur_30_967"/>
</filter>
<filter id="filter34_f_30_967" x="1121.56" y="604.016" width="1.82808" height="1.82857" filterUnits="userSpaceOnUse" color-interpolation-filters="sRGB">
<feFlood flood-opacity="0" result="BackgroundImageFix"/>
<feBlend mode="normal" in="SourceGraphic" in2="BackgroundImageFix" result="shape"/>
<feGaussianBlur stdDeviation="0.245594" result="effect1_foregroundBlur_30_967"/>
</filter>
<filter id="filter35_f_30_967" x="1142.27" y="657.005" width="1.82808" height="1.82857" filterUnits="userSpaceOnUse" color-interpolation-filters="sRGB">
<feFlood flood-opacity="0" result="BackgroundImageFix"/>
<feBlend mode="normal" in="SourceGraphic" in2="BackgroundImageFix" result="shape"/>
<feGaussianBlur stdDeviation="0.245594" result="effect1_foregroundBlur_30_967"/>
</filter>
<linearGradient id="paint0_linear_30_967" x1="857.051" y1="80.7398" x2="641.876" y2="615.745" gradientUnits="userSpaceOnUse">
<stop stop-color="#FED000"/>
<stop offset="1" stop-color="#62FFEA" stop-opacity="0"/>
</linearGradient>
<linearGradient id="paint1_linear_30_967" x1="857.051" y1="80.7398" x2="641.876" y2="615.745" gradientUnits="userSpaceOnUse">
<stop stop-color="#FED000"/>
<stop offset="1" stop-color="#917808"/>
</linearGradient>
<linearGradient id="paint2_linear_30_967" x1="857.051" y1="80.7398" x2="641.876" y2="615.745" gradientUnits="userSpaceOnUse">
<stop stop-color="#FED000"/>
<stop offset="1" stop-color="#917808"/>
</linearGradient>
<linearGradient id="paint3_linear_30_967" x1="857.051" y1="80.7398" x2="641.876" y2="615.745" gradientUnits="userSpaceOnUse">
<stop stop-color="#FED000"/>
<stop offset="1" stop-color="#917808"/>
</linearGradient>
<linearGradient id="paint4_linear_30_967" x1="1220.05" y1="514.74" x2="1004.88" y2="1049.75" gradientUnits="userSpaceOnUse">
<stop stop-color="#FED000"/>
<stop offset="1" stop-color="#62FFEA" stop-opacity="0"/>
</linearGradient>
<linearGradient id="paint5_linear_30_967" x1="1220.05" y1="514.74" x2="1004.88" y2="1049.75" gradientUnits="userSpaceOnUse">
<stop stop-color="#FED000"/>
<stop offset="1" stop-color="#917808"/>
</linearGradient>
<linearGradient id="paint6_linear_30_967" x1="1220.05" y1="514.74" x2="1004.88" y2="1049.75" gradientUnits="userSpaceOnUse">
<stop stop-color="#FED000"/>
<stop offset="1" stop-color="#917808"/>
</linearGradient>
<linearGradient id="paint7_linear_30_967" x1="1220.05" y1="514.74" x2="1004.88" y2="1049.75" gradientUnits="userSpaceOnUse">
<stop stop-color="#FED000"/>
<stop offset="1" stop-color="#917808"/>
</linearGradient>
<clipPath id="clip0_30_967">
<rect width="1920" height="1080" fill="white"/>
</clipPath>
</defs>
</svg>
